<?xml version="1.0" encoding="utf-8"?>
<!-- Generator: Adobe Illustrator 19.0.0, SVG Export Plug-In . SVG Version: 6.00 Build 0)  -->
<svg version="1.1" id="Capa_1" xmlns="http://www.w3.org/2000/svg" xmlns:xlink="http://www.w3.org/1999/xlink" x="0px" y="0px"
	 viewBox="68 99.7 1136.6 643.2" style="enable-background:new 68 99.7 1136.6 643.2;" xml:space="preserve">
<style type="text/css">
	.st0{fill:none;}
	.st1{opacity:0.24;fill:#FFFFFF;enable-background:new    ;}
	.st2{fill:#3F3D56;}
	.st3{opacity:0.8;fill:#FA5959;enable-background:new    ;}
	.st4{opacity:0.8;fill:#FED253;enable-background:new    ;}
	.st5{opacity:0.8;fill:#8CCF4D;enable-background:new    ;}
	.st6{font-family:'Orbitron-Bold';}
	.st7{font-size:103.0634px;}
</style>
<rect id="backgroundrect" x="265.4" y="99.7" class="st0" width="772.4" height="643.2"/>
<title>status update</title>
<title>Layer 1</title>
<path id="svg_38" class="st1" d="M1037.9,186.2v518.4c0,15.4-14.9,28-33.2,28H301.3c-18.4,0-33.2-12.5-33.2-28V186.2
	c0-15.4,14.9-31.2,33.2-31.2l703.3,1.7C1022.9,156.8,1037.9,170.9,1037.9,186.2z"/>
<path id="svg_39" class="st2" d="M1037.9,131.1v24H268v-24c0-17.3,14-31.4,31.3-31.4c0,0,0,0,0,0h707.1
	C1023.8,99.7,1037.9,113.7,1037.9,131.1z"/>
<circle id="svg_40" class="st3" cx="305.3" cy="127.4" r="11.1"/>
<circle id="svg_41" class="st4" cx="337.5" cy="127.4" r="11.1"/>
<circle id="svg_42" class="st5" cx="369.8" cy="127.4" r="11.1"/>
<text transform="matrix(0.8461 0 0 1 332.9002 373.3082)"><tspan x="0" y="0" class="st6 st7">PUBLICA TU </tspan><tspan x="34.1" y="123.7" class="st6 st7">LOGO AQUI </tspan></text>
</svg>
